<?xml version="1.0" encoding="utf-8"?>
<!-- Generator: Adobe Illustrator 16.0.0, SVG Export Plug-In . SVG Version: 6.00 Build 0)  -->
<!DOCTYPE svg PUBLIC "-//W3C//DTD SVG 1.1//EN" "http://www.w3.org/Graphics/SVG/1.1/DTD/svg11.dtd">
<svg version="1.1" xmlns="http://www.w3.org/2000/svg" xmlns:xlink="http://www.w3.org/1999/xlink" x="0px" y="0px" width="120px"
	 height="40px" viewBox="0 0 120 40" enable-background="new 0 0 120 40" xml:space="preserve">
<g id="Layer_1">
	<path fill="#C3C2B9" d="M58,17h-1.5H56l0,0l0,0c-0.5,0-1-0.5-1-1c0-0.6,0.4-1,1-1h0.5c0.3,0,0.5-0.2,0.5-0.5v-7
		C57,7.2,56.8,7,56.5,7H54h-0.8l-0.6-0.6L51.2,5h-2.3l-1.4,1.4L46.8,7H46h-2.5C43.2,7,43,7.2,43,7.5v7c0,0.3,0.2,0.5,0.5,0.5H44
		c0.6,0,1,0.4,1,1s-0.4,1-1,1h-0.5H42c-0.6,0-1-0.4-1-1V6c0-0.6,0.4-1,1-1h4l1.7-1.7C47.9,3.1,48.1,3,48.4,3h3.2
		c0.3,0,0.5,0.1,0.7,0.3L54,5h4c0.6,0,1,0.4,1,1v10C59,16.6,58.6,17,58,17z M50,8c2.2,0,4,1.8,4,4s-1.8,4-4,4s-4-1.8-4-4
		S47.8,8,50,8z M50,14c1.1,0,2-0.9,2-2s-0.9-2-2-2s-2,0.9-2,2S48.9,14,50,14z"/>
	<path fill="#C3C2B9" d="M77.1,9L77.1,9c-0.699,0.7-1.5,1-2.3,1s-1.6-0.3-2.3-0.9l-0.2-0.2C71.8,9.6,71,10,70,10l0,0
		c-0.9,0-1.8-0.4-2.3-1.1l-0.2,0.2c-0.6,0.6-1.4,0.9-2.3,0.9c-0.8,0-1.601-0.3-2.3-0.9l0,0c-1.2-1.2-1.2-3.3,0-4.5L64.5,3
		c0.6-0.7,1.4-1,2.3-1C66.9,2,67,2,67,2l0,0h3l0,0h3l0,0c0.1,0,0.2,0,0.2,0c0.8,0,1.6,0.3,2.2,0.9L77,4.5C78.3,5.7,78.3,7.8,77.1,9z
		 M75.6,5.9L74,4.3C73.8,4.1,73.4,4,73.2,4H73h-2h-1l0,0h-1h-2h-0.2c-0.2,0-0.5,0-0.8,0.3l-1.6,1.6c-0.5,0.5-0.5,1.2,0,1.7l0,0
		C64.6,7.9,64.9,8,65.2,8s0.6-0.1,0.8-0.3l0.2-0.2L67.6,6.1C67.7,6,67.9,6,68,6.1l1.2,1.5C69.4,7.9,69.7,8,70,8l0,0
		c0.3,0,0.6-0.1,0.8-0.4L72,6.1c0.1-0.1,0.2-0.1,0.3,0l1.4,1.4l0.2,0.2C74.1,7.9,74.4,8,74.8,8c0.3,0,0.601-0.1,0.8-0.3l0,0
		C76.1,7.1,76.1,6.4,75.6,5.9z M65,12L65,12c0.6,0,1,0.4,1,1v2.5c0,0.3,0.2,0.5,0.5,0.5h7c0.3,0,0.5-0.2,0.5-0.5V13c0-0.5,0.4-1,1-1
		l0,0c0.5,0,1,0.4,1,1v4c0,0.5-0.4,1-1,1h-1h-8h-1c-0.5,0-1-0.4-1-1v-4C64,12.4,64.4,12,65,12z"/>
	<path fill="#C3C2B9" d="M93,17h-6c-3.9,0-7-3.1-7-7s3.1-7,7-7h6c3.9,0,7,3.1,7,7S96.9,17,93,17z M93,5h-6c-2.8,0-5,2.2-5,5
		s2.2,5,5,5h6c2.8,0,5-2.2,5-5S95.8,5,93,5z M87,13c-1.7,0-3-1.3-3-3s1.3-3,3-3s3,1.3,3,3S88.7,13,87,13z"/>
	<path fill="#C3C2B9" d="M117,8v9c0,0.6-0.4,1-1,1h-12c-0.6,0-1-0.4-1-1V8h-2V7c0-0.6,0.4-1,1-1h2h2V3c0-0.6,0.4-1,1-1h6
		c0.6,0,1,0.4,1,1v3h2h2c0.6,0,1,0.4,1,1v1H117z M112,4h-4v2h4V4z M115,8h-1h-8h-1v8h10V8z M107.5,10h1c0.3,0,0.5,0.2,0.5,0.5v3
		c0,0.3-0.2,0.5-0.5,0.5h-1c-0.3,0-0.5-0.2-0.5-0.5v-3C107,10.2,107.2,10,107.5,10z M111.5,10h1c0.3,0,0.5,0.2,0.5,0.5v3
		c0,0.3-0.2,0.5-0.5,0.5h-1c-0.3,0-0.5-0.2-0.5-0.5v-3C111,10.2,111.2,10,111.5,10z"/>
	<path fill="#F05451" d="M58,37h-1.5H56l0,0l0,0c-0.5,0-1-0.5-1-1c0-0.6,0.4-1,1-1h0.5c0.3,0,0.5-0.2,0.5-0.5v-7
		c0-0.3-0.2-0.5-0.5-0.5H54h-0.8l-0.6-0.6L51.2,25h-2.3l-1.4,1.4L46.8,27H46h-2.5c-0.3,0-0.5,0.2-0.5,0.5v7c0,0.3,0.2,0.5,0.5,0.5
		H44c0.6,0,1,0.4,1,1s-0.4,1-1,1h-0.5H42c-0.6,0-1-0.4-1-1V26c0-0.6,0.4-1,1-1h4l1.7-1.7c0.2-0.2,0.4-0.3,0.7-0.3h3.2
		c0.3,0,0.5,0.1,0.7,0.3L54,25h4c0.6,0,1,0.4,1,1v10C59,36.6,58.6,37,58,37z M50,28c2.2,0,4,1.8,4,4s-1.8,4-4,4s-4-1.8-4-4
		S47.8,28,50,28z M50,34c1.1,0,2-0.9,2-2s-0.9-2-2-2s-2,0.9-2,2S48.9,34,50,34z"/>
	<path fill="#F05451" d="M77.1,29L77.1,29c-0.699,0.7-1.5,1-2.3,1s-1.6-0.3-2.3-0.9L72.3,28.9C71.8,29.6,71,30,70,30l0,0
		c-0.9,0-1.8-0.4-2.3-1.1L67.5,29.1C66.9,29.7,66.1,30,65.2,30c-0.8,0-1.601-0.3-2.3-0.9l0,0c-1.2-1.199-1.2-3.3,0-4.5l1.6-1.6
		c0.6-0.6,1.4-0.9,2.2-0.9c0.1,0,0.2,0,0.2,0l0,0h3H70h3l0,0c0.1,0,0.2,0,0.2,0c0.8,0,1.6,0.301,2.2,0.9l1.6,1.6
		C78.3,25.7,78.3,27.8,77.1,29z M75.6,25.9L74,24.3C73.7,24,73.3,24,73.2,24H73h-2h-1l0,0h-1h-2h-0.2c-0.2,0-0.5,0-0.8,0.3
		L64.4,25.9c-0.5,0.5-0.5,1.199,0,1.699l0,0c0.199,0.2,0.5,0.301,0.8,0.301S65.8,27.8,66,27.6l0.2-0.199L67.6,26
		c0.101-0.1,0.301-0.1,0.301,0l1.199,1.5c0.2,0.2,0.5,0.4,0.801,0.4H70c0.3,0,0.6-0.101,0.8-0.4l1.3-1.6
		c0.101-0.101,0.2-0.101,0.301,0L73.8,27.3l0.2,0.2c0.2,0.2,0.5,0.3,0.8,0.3s0.601-0.1,0.8-0.3l0,0C76.1,27.1,76.1,26.4,75.6,25.9z
		 M65,32L65,32c0.6,0,1,0.4,1,1v2.5c0,0.3,0.2,0.5,0.5,0.5h7c0.3,0,0.5-0.2,0.5-0.5V33c0-0.5,0.4-1,1-1l0,0c0.5,0,1,0.4,1,1v4
		c0,0.5-0.4,1-1,1h-1h-8h-1c-0.5,0-1-0.4-1-1v-4C64,32.4,64.4,32,65,32z"/>
	<path fill="#F05451" d="M93,37h-6c-3.9,0-7-3.1-7-7s3.1-7,7-7h6c3.9,0,7,3.1,7,7S96.9,37,93,37z M93,25h-6c-2.8,0-5,2.2-5,5
		s2.2,5,5,5h6c2.8,0,5-2.2,5-5S95.8,25,93,25z M87,33c-1.7,0-3-1.3-3-3s1.3-3,3-3s3,1.3,3,3S88.7,33,87,33z"/>
	<path fill="#F05451" d="M117,28v9c0,0.6-0.4,1-1,1h-12c-0.6,0-1-0.4-1-1v-9h-2v-1c0-0.6,0.4-1,1-1h2h2v-3c0-0.6,0.4-1,1-1h6
		c0.6,0,1,0.4,1,1v3h2h2c0.6,0,1,0.4,1,1v1H117z M112,24h-4v2h4V24z M115,28h-1h-8h-1v8h10V28z M107.5,30h1c0.3,0,0.5,0.2,0.5,0.5v3
		c0,0.3-0.2,0.5-0.5,0.5h-1c-0.3,0-0.5-0.2-0.5-0.5v-3C107,30.2,107.2,30,107.5,30z M111.5,30h1c0.3,0,0.5,0.2,0.5,0.5v3
		c0,0.3-0.2,0.5-0.5,0.5h-1c-0.3,0-0.5-0.2-0.5-0.5v-3C111,30.2,111.2,30,111.5,30z"/>
	<path fill="#F05451" d="M4.812,31.007c0,0.462-0.374,0.836-0.836,0.836H1.992c-0.461,0-0.835-0.374-0.835-0.836v-1.983
		c0-0.462,0.374-0.836,0.835-0.836h1.984c0.462,0,0.836,0.374,0.836,0.836V31.007z"/>
	<path fill="#F05451" d="M13.296,28.188h-0.5h-1.484h-0.5H8.828c-0.025,0-0.046,0.012-0.07,0.015
		c-0.024-0.003-0.045-0.015-0.07-0.015H6.703c-0.461,0-0.835,0.374-0.835,0.836v1.983c0,0.462,0.374,0.836,0.835,0.836h1.984
		c0.025,0,0.046-0.012,0.07-0.015c0.024,0.003,0.045,0.015,0.07,0.015h1.984h0.5h1.484h0.5c0.462,0,0.836-0.374,0.836-0.836v-1.983
		C14.132,28.562,13.758,28.188,13.296,28.188z"/>
	<path fill="#F05451" d="M8.585,23.646h-0.5H6.601h-0.5H4.117c-0.025,0-0.046,0.012-0.07,0.015c-0.024-0.003-0.045-0.015-0.07-0.015
		H1.992c-0.461,0-0.835,0.374-0.835,0.836v1.983c0,0.462,0.374,0.836,0.835,0.836h1.984c0.025,0,0.046-0.012,0.07-0.015
		c0.024,0.003,0.045,0.015,0.07,0.015h1.984h0.5h1.484h0.5c0.462,0,0.836-0.374,0.836-0.836v-1.983
		C9.421,24.02,9.047,23.646,8.585,23.646z"/>
	<path fill="#F05451" d="M13.296,31.843h-0.5h-1.484h-0.5H8.828c-0.025,0-0.046-0.012-0.07-0.015
		c-0.024,0.003-0.045,0.015-0.07,0.015H6.703c-0.461,0-0.835-0.374-0.835-0.836v-1.983c0-0.462,0.374-0.836,0.835-0.836h1.984
		c0.025,0,0.046,0.012,0.07,0.015c0.024-0.003,0.045-0.015,0.07-0.015h1.984h0.5h1.484h0.5c0.462,0,0.836,0.374,0.836,0.836v1.983
		C14.132,31.469,13.758,31.843,13.296,31.843z"/>
	<path fill="#F05451" d="M8.585,36.385h-0.5H6.601h-0.5H4.117c-0.025,0-0.046-0.012-0.07-0.015c-0.024,0.003-0.045,0.015-0.07,0.015
		H1.992c-0.461,0-0.835-0.374-0.835-0.836v-1.983c0-0.462,0.374-0.836,0.835-0.836h1.984c0.025,0,0.046,0.012,0.07,0.015
		c0.024-0.003,0.045-0.015,0.07-0.015h1.984h0.5h1.484h0.5c0.462,0,0.836,0.374,0.836,0.836v1.983
		C9.421,36.011,9.047,36.385,8.585,36.385z"/>
	<path fill="#F05451" d="M15.188,30.991c0,0.462,0.374,0.836,0.836,0.836h1.984c0.461,0,0.835-0.374,0.835-0.836v-1.983
		c0-0.462-0.374-0.836-0.835-0.836h-1.984c-0.462,0-0.836,0.374-0.836,0.836V30.991z"/>
	<path fill="#F05451" d="M11.414,23.63h0.5h1.484h0.5h1.984c0.025,0,0.046,0.012,0.07,0.015c0.024-0.003,0.045-0.015,0.07-0.015
		h1.984c0.461,0,0.835,0.374,0.835,0.836v1.983c0,0.462-0.374,0.836-0.835,0.836h-1.984c-0.025,0-0.046-0.012-0.07-0.015
		c-0.024,0.003-0.045,0.015-0.07,0.015h-1.984h-0.5h-1.484h-0.5c-0.462,0-0.836-0.374-0.836-0.836v-1.983
		C10.578,24.004,10.952,23.63,11.414,23.63z"/>
	<path fill="#F05451" d="M11.414,36.369h0.5h1.484h0.5h1.984c0.025,0,0.046-0.012,0.07-0.015c0.024,0.003,0.045,0.015,0.07,0.015
		h1.984c0.461,0,0.835-0.374,0.835-0.836V33.55c0-0.462-0.374-0.836-0.835-0.836h-1.984c-0.025,0-0.046,0.012-0.07,0.015
		c-0.024-0.003-0.045-0.015-0.07-0.015h-1.984h-0.5h-1.484h-0.5c-0.462,0-0.836,0.374-0.836,0.836v1.983
		C10.578,35.995,10.952,36.369,11.414,36.369z"/>
	<g>
		<path fill="#F05451" d="M30.799,30.896v0.229c0,0.188-0.152,0.34-0.339,0.34h-1.253c-0.187,0-0.339-0.152-0.339-0.34v-0.229H22
			v2.723v1.583v0.167c0,0.554,0.448,1,1,1h14c0.552,0,1-0.446,1-1v-4.473H30.799z"/>
		<path fill="#F05451" d="M28.868,30.104v-0.231c0-0.188,0.152-0.339,0.339-0.339h1.253c0.187,0,0.339,0.151,0.339,0.339v0.231H38
			v-2.549c0-0.554-0.448-1-1-1h-2.167v-2.374c0-0.414-0.336-0.75-0.75-0.75h-8.167c-0.414,0-0.75,0.336-0.75,0.75v2.374H23
			c-0.552,0-1,0.446-1,1v2.549H28.868z M26.667,24.932h6.667v1.624h-6.667V24.932z"/>
	</g>
	<path fill="#C3C2B9" d="M4.734,11.007c0,0.462-0.374,0.836-0.836,0.836H1.914c-0.461,0-0.835-0.374-0.835-0.836V9.023
		c0-0.462,0.374-0.836,0.835-0.836h1.984c0.462,0,0.836,0.374,0.836,0.836V11.007z"/>
	<path fill="#C3C2B9" d="M13.218,8.188h-0.5h-1.484h-0.5H8.75c-0.025,0-0.046,0.012-0.07,0.015c-0.024-0.003-0.045-0.015-0.07-0.015
		H6.625c-0.461,0-0.835,0.374-0.835,0.836v1.983c0,0.462,0.374,0.836,0.835,0.836h1.984c0.025,0,0.046-0.012,0.07-0.015
		c0.024,0.003,0.045,0.015,0.07,0.015h1.984h0.5h1.484h0.5c0.462,0,0.836-0.374,0.836-0.836V9.023
		C14.054,8.562,13.68,8.188,13.218,8.188z"/>
	<path fill="#C3C2B9" d="M8.507,3.646h-0.5H6.523h-0.5H4.039c-0.025,0-0.046,0.012-0.07,0.015c-0.024-0.003-0.045-0.015-0.07-0.015
		H1.914c-0.461,0-0.835,0.374-0.835,0.836v1.983c0,0.462,0.374,0.836,0.835,0.836h1.984c0.025,0,0.046-0.012,0.07-0.015
		c0.024,0.003,0.045,0.015,0.07,0.015h1.984h0.5h1.484h0.5c0.462,0,0.836-0.374,0.836-0.836V4.481
		C9.343,4.02,8.969,3.646,8.507,3.646z"/>
	<path fill="#C3C2B9" d="M8.507,16.385h-0.5H6.523h-0.5H4.039c-0.025,0-0.046-0.012-0.07-0.015c-0.024,0.003-0.045,0.015-0.07,0.015
		H1.914c-0.461,0-0.835-0.374-0.835-0.836v-1.983c0-0.462,0.374-0.836,0.835-0.836h1.984c0.025,0,0.046,0.012,0.07,0.015
		c0.024-0.003,0.045-0.015,0.07-0.015h1.984h0.5h1.484h0.5c0.462,0,0.836,0.374,0.836,0.836v1.983
		C9.343,16.011,8.969,16.385,8.507,16.385z"/>
	<path fill="#C3C2B9" d="M15.109,10.991c0,0.462,0.374,0.836,0.836,0.836h1.984c0.461,0,0.835-0.374,0.835-0.836V9.008
		c0-0.462-0.374-0.836-0.835-0.836h-1.984c-0.462,0-0.836,0.374-0.836,0.836V10.991z"/>
	<path fill="#C3C2B9" d="M11.336,3.63h0.5h1.484h0.5h1.984c0.025,0,0.046,0.012,0.07,0.015c0.024-0.003,0.045-0.015,0.07-0.015
		h1.984c0.461,0,0.835,0.374,0.835,0.836v1.983c0,0.462-0.374,0.836-0.835,0.836h-1.984c-0.025,0-0.046-0.012-0.07-0.015
		c-0.024,0.003-0.045,0.015-0.07,0.015H13.82h-0.5h-1.484h-0.5c-0.462,0-0.836-0.374-0.836-0.836V4.466
		C10.5,4.004,10.874,3.63,11.336,3.63z"/>
	<path fill="#C3C2B9" d="M11.336,16.369h0.5h1.484h0.5h1.984c0.025,0,0.046-0.012,0.07-0.015c0.024,0.003,0.045,0.015,0.07,0.015
		h1.984c0.461,0,0.835-0.374,0.835-0.836V13.55c0-0.462-0.374-0.836-0.835-0.836h-1.984c-0.025,0-0.046,0.012-0.07,0.015
		c-0.024-0.003-0.045-0.015-0.07-0.015H13.82h-0.5h-1.484h-0.5c-0.462,0-0.836,0.374-0.836,0.836v1.983
		C10.5,15.995,10.874,16.369,11.336,16.369z"/>
	<g>
		<path fill="#C3C2B9" d="M30.721,10.896v0.229c0,0.188-0.152,0.34-0.339,0.34h-1.253c-0.187,0-0.339-0.152-0.339-0.34v-0.229
			h-6.868v2.723v1.583v0.167c0,0.554,0.448,1,1,1h14c0.553,0,1-0.446,1-1v-4.473H30.721z"/>
		<path fill="#C3C2B9" d="M28.79,10.104V9.873c0-0.188,0.152-0.339,0.339-0.339h1.253c0.187,0,0.339,0.151,0.339,0.339v0.231h7.201
			V7.556c0-0.554-0.447-1-1-1h-2.167V4.182c0-0.414-0.336-0.75-0.75-0.75h-8.167c-0.414,0-0.75,0.336-0.75,0.75v2.374h-2.167
			c-0.552,0-1,0.446-1,1v2.549H28.79z M26.589,4.932h6.667v1.624h-6.667V4.932z"/>
	</g>
</g>
<g id="Capa_2">
</g>
</svg>
